<?xml version="1.0" encoding="UTF-8"?>
<svg width="64px" height="64px" version="1.1" viewBox="0 0 64 64" xml:space="preserve" xmlns="http://www.w3.org/2000/svg"><defs><clipPath id="clipPath5"><path d="m32.3 11-21.4 21.4 21.4 21.4 21.4-21.4zm1e-6 8.77 12.6 12.6-12.6 12.6-12.6-12.6z" display="none" fill="#fff" stop-color="#000000" stroke-miterlimit="10"/><path class="powerclip" d="m-3.23 3.74h64.5v63.5h-64.5zm35.5 7.21-21.4 21.4 21.4 21.4 21.4-21.4zm1e-6 8.77-12.6 12.6 12.6 12.6 12.6-12.6z" fill="#fff" stop-color="#000000" stroke-miterlimit="10"/></clipPath><clipPath id="clipPath4"><path transform="matrix(.967 0 0 .967 .207 1.15)" d="m7 2h50a5 5 45 0 1 5 5v50a5 5 135 0 1-5 5h-50a5 5 45 0 1-5-5v-50a5 5 135 0 1 5-5z" fill="#481e1e" stroke-linejoin="round" stroke-miterlimit="10" stroke-width="3.78"/></clipPath><clipPath id="clipPath8"><path transform="matrix(.967 0 0 .967 1.07 1.07)" d="m7 2h50a5 5 45 0 1 5 5v50a5 5 135 0 1-5 5h-50a5 5 45 0 1-5-5v-50a5 5 135 0 1 5-5z" fill="#481e1e" stroke-linejoin="round" stroke-miterlimit="10" stroke-width="3.78"/></clipPath></defs><g><path id="background" d="m7.8 1.8h48.5a6 6 45 0 1 6 6v48.5a6 6 135 0 1-6 6h-48.5a6 6 45 0 1-6-6v-48.5a6 6 135 0 1 6-6z" fill="#1e1e1e" stroke-linejoin="round" stroke-miterlimit="10" stroke-width="3.78"/><g clip-path="url(#clipPath8)"><path d="M 23,23 3,3" fill="none" stroke="#fff" stroke-miterlimit="10" stroke-width="3.3"/><path d="m55 10-52 51" clip-path="url(#clipPath5)" fill="none" stroke="#00f" stroke-miterlimit="10" stroke-width="3.52"/><circle cx="55" cy="10" r="5" fill="#00f"/><path d="m25 25 7.19 7.06" fill="#008080" stroke="#00f" stroke-miterlimit="10" stroke-width="3.3"/></g><g id="upper" transform="translate(.86 -.0786)" clip-path="url(#clipPath4)"><rect transform="rotate(45)" x="33.1" y="-11.3" width="24" height="24" fill="none" stroke="#fff" stroke-miterlimit="10" stroke-width="3.3"/><circle cx="40.1" cy="41.1" r="3" fill="#fff"/><path d="m40.1 41.1 20 20" fill="#fff" stroke="#fff" stroke-miterlimit="10" stroke-width="3.3"/></g></g></svg>
